<?xml version="1.0" encoding="utf-8"?>
<!-- Generator: Adobe Illustrator 26.3.1, SVG Export Plug-In . SVG Version: 6.00 Build 0)  -->
<svg version="1.1" id="Layer_1" xmlns="http://www.w3.org/2000/svg" xmlns:xlink="http://www.w3.org/1999/xlink" x="0px" y="0px"
	 viewBox="0 0 500 154.3" style="enable-background:new 0 0 500 154.3;" xml:space="preserve">
<style type="text/css">
	.st0{fill:#FFFFFF;}
	.st1{fill:#D88506;}
</style>
<path class="st0" d="M96.9,112.2c-5.1,0-10.1-0.9-14.7-2.9c-14-5.7-23.1-19.3-23-34.4c0-5,1-10,3-14.6c1.9-4.4,4.7-8.4,8.2-11.8
	c3.6-3.4,7.7-6.1,12.3-7.9c4.8-1.9,9.9-2.9,15.1-2.8c5.8-0.1,11.6,1.1,16.9,3.4c4.9,2.1,9.2,5.3,12.6,9.3l-10.9,10.9
	c-2.2-2.9-5-5.2-8.2-6.7c-3.3-1.5-7-2.3-10.6-2.2c-4-0.1-7.9,0.9-11.3,2.8c-3.3,1.8-6,4.5-7.8,7.8c-1.9,3.6-2.9,7.7-2.8,11.8
	c-0.1,4.1,0.9,8.2,2.8,11.8c1.7,3.3,4.3,6.1,7.6,8c3.3,1.9,7.2,2.9,11,2.9c3.7,0.1,7.4-0.7,10.8-2.4c2.9-1.6,5.3-4,6.8-6.9
	c1.7-3.4,2.5-7.2,2.4-11.1l10.6,7.1l-32.2-0.5V70.2h37.9v2.3c0,8.6-1.6,15.9-4.7,21.8c-2.8,5.6-7.3,10.3-12.9,13.3
	C110,110.8,103.5,112.3,96.9,112.2L96.9,112.2z M163.7,112.2c-4.2,0.1-8.4-0.9-12.1-2.8c-3.4-1.8-6.3-4.5-8.2-7.8
	c-2-3.5-3-7.4-3-11.4V61.4h15.6V90c0,1.5,0.3,3,0.9,4.4c0.6,1.2,1.5,2.2,2.6,2.9c1.3,0.7,2.7,1.1,4.2,1c2.1,0.1,4.1-0.7,5.5-2.2
	c1.4-1.5,2-3.5,2-6.1V61.4h15.6v28.7c0.1,4-0.9,8-3,11.5c-2,3.3-4.8,6-8.2,7.8C172.1,111.3,167.9,112.3,163.7,112.2L163.7,112.2z
	 M204.6,54.6c-2.3,0.1-4.5-0.8-6.1-2.5c-3.2-3.4-3.2-8.8,0-12.2c1.6-1.6,3.8-2.5,6.1-2.5c2.3-0.1,4.5,0.8,6,2.5
	c3.1,3.5,3.1,8.7,0,12.2C209,53.8,206.8,54.7,204.6,54.6z M196.7,111.1V61.4h15.6v49.6H196.7z M219.2,74.7V61.4h38.1v13.2H219.2z
	 M230.4,111V40.9H246v70.2L230.4,111z M283.8,112.1c-4.3,0.1-8.5-1.1-12.2-3.4c-3.6-2.3-6.5-5.4-8.5-9.2c-2.1-4.1-3.2-8.7-3.1-13.3
	c-0.1-4.6,1-9.2,3.1-13.3c2-3.7,4.9-6.9,8.5-9.1c3.7-2.3,7.9-3.4,12.2-3.4c3.1,0,6.2,0.6,9,1.9c2.6,1.2,4.9,3.1,6.6,5.4
	c1.7,2.3,2.7,5,2.9,7.8V97c-0.2,2.8-1.1,5.5-2.8,7.8c-1.7,2.3-4,4.2-6.6,5.4C290,111.5,286.9,112.1,283.8,112.1L283.8,112.1z
	 M287,98c3,0.1,6-1.1,8.1-3.3c2.1-2.3,3.2-5.3,3.1-8.4c0-2.1-0.4-4.2-1.4-6.1c-0.9-1.7-2.2-3.2-3.9-4.1c-3.6-2-7.9-2-11.5,0
	c-1.7,1-3.1,2.4-4.1,4.2c-1.9,3.8-2,8.3,0,12.2c0.9,1.7,2.3,3.2,4,4.2C283,97.5,285,98,287,98L287,98z M297.5,111.1V97.7l2.3-12
	l-2.3-12.1V61.4h15.3v49.6H297.5z M323.8,111.1V61.4h15.6v49.6H323.8z M339.5,83.8l-6.5-5.1c1.3-5.8,3.5-10.3,6.5-13.5
	c3.1-3.2,7.3-4.8,12.8-4.8c2.1,0,4.3,0.3,6.3,1.1c1.8,0.7,3.4,1.9,4.7,3.3l-9.3,11.7c-0.7-0.8-1.6-1.4-2.6-1.7
	c-1.1-0.4-2.3-0.6-3.5-0.6c-2.3-0.1-4.6,0.8-6.2,2.4C340.2,78.2,339.5,80.6,339.5,83.8L339.5,83.8z M59.2,152.6v-24.8h5.5v24.8H59.2
	z M69.6,152.6v-24.8h3.9l1.6,5v19.9L69.6,152.6z M86.7,152.6l-14.6-18.7l1.4-6.1L88,146.5L86.7,152.6z M86.7,152.6l-1.5-5v-19.9h5.5
	v24.8L86.7,152.6z M102.4,152.9c-1.8,0-3.6-0.3-5.3-1c-1.5-0.7-2.9-1.8-4-3l3.6-3.6c0.7,0.9,1.6,1.6,2.7,2.1
	c1.1,0.5,2.2,0.8,3.4,0.8c0.9,0.1,1.9-0.2,2.7-0.6c0.6-0.4,1-1,1-1.8c0-0.6-0.2-1.2-0.6-1.7c-0.5-0.5-1-0.8-1.7-1.1
	c-0.7-0.3-1.5-0.6-2.3-0.9c-0.8-0.3-1.7-0.6-2.5-1c-0.8-0.4-1.6-0.8-2.3-1.4c-0.7-0.6-1.3-1.3-1.7-2.1c-1.8-3.6-0.2-8,3.5-9.6
	c1.4-0.6,3-0.9,4.5-0.9c1.6,0,3.3,0.3,4.8,0.9c1.4,0.6,2.6,1.4,3.6,2.5l-3.6,3.5c-0.7-0.7-1.4-1.3-2.3-1.7c-0.8-0.4-1.7-0.6-2.6-0.6
	c-0.8,0-1.6,0.1-2.3,0.5c-0.5,0.3-0.9,0.9-0.8,1.6c0,0.6,0.2,1.2,0.6,1.6c0.5,0.4,1.1,0.8,1.7,1c0.7,0.3,1.5,0.6,2.3,0.8
	c0.8,0.3,1.7,0.6,2.5,1c0.8,0.4,1.6,0.9,2.3,1.4c0.7,0.6,1.3,1.3,1.7,2.2c0.5,1,0.7,2.1,0.6,3.3c0.1,2.2-0.8,4.2-2.5,5.6
	C107.8,152.3,105.4,152.9,102.4,152.9L102.4,152.9z M112.9,132.6v-4.8h21.1v4.8H112.9z M120.7,152.6v-24.5h5.5v24.5H120.7z
	 M137,152.6v-24.8h5.5v24.8H137z M141.3,142.3v-4.1h5.2c0.9,0.1,1.8-0.2,2.6-0.8c1.2-1.3,1.2-3.2,0-4.5c-0.7-0.6-1.6-0.9-2.5-0.9
	h-5.3v-4.3h5.9c1.5,0,3,0.3,4.3,0.9c1.2,0.6,2.2,1.5,2.9,2.6c1.4,2.3,1.4,5.3,0,7.6c-0.7,1.1-1.8,2-3,2.5c-1.4,0.6-2.9,1-4.5,0.9
	H141.3z M150.6,152.6l-7.8-10.7l5.1-1.4l9.2,12.1H150.6z M169.4,152.9c-1.9,0-3.8-0.4-5.4-1.3c-1.5-0.8-2.8-2.1-3.7-3.6
	c-0.9-1.6-1.3-3.4-1.3-5.3v-15h5.5v15.4c0,0.9,0.2,1.8,0.6,2.6c0.4,0.7,1,1.3,1.7,1.7c0.8,0.4,1.6,0.6,2.4,0.6
	c0.9,0,1.7-0.2,2.5-0.6c0.7-0.4,1.3-1,1.7-1.7c0.4-0.8,0.6-1.7,0.6-2.5v-15.4h5.6v15.1c0,1.8-0.4,3.6-1.3,5.2
	c-0.8,1.5-2.1,2.8-3.6,3.6C173.1,152.5,171.2,153,169.4,152.9L169.4,152.9z M184.1,152.6v-24.8h3.9l9.8,15.2h-2l9.7-15.2h4v24.8
	h-5.5v-15.5l1,0.2l-6.4,9.9h-3.7l-6.3-9.9l0.9-0.2v15.5L184.1,152.6z M214.2,152.6v-24.8h5.5v24.8H214.2z M218.4,132.5v-4.7h13.4
	v4.7H218.4z M218.4,142.2v-4.6h12.4v4.6L218.4,142.2z M218.4,152.6v-4.8H232v4.8H218.4z M235.8,152.6v-24.8h3.9l1.7,5v19.9
	L235.8,152.6z M252.9,152.6l-14.6-18.7l1.4-6.1l14.6,18.7L252.9,152.6z M252.9,152.6l-1.5-4.9v-19.9h5.5v24.8L252.9,152.6z
	 M260.1,132.6v-4.8h21.1v4.8H260.1z M267.8,152.6v-24.5h5.5v24.5H267.8z M294.8,153c-1.8,0-3.5-0.3-5.2-1c-1.6-0.6-3-1.6-4.2-2.7
	c-1.2-1.2-2.1-2.6-2.8-4.1c-1.3-3.2-1.3-6.9,0-10.1c0.6-1.5,1.6-2.9,2.7-4.1c1.2-1.2,2.6-2.1,4.1-2.7c3.3-1.3,7-1.3,10.3,0
	c1.5,0.6,2.9,1.5,4.1,2.7c1.2,1.2,2.1,2.6,2.8,4.1c1.3,3.2,1.3,6.9,0,10.1c-0.6,1.5-1.6,2.9-2.7,4.1c-1.2,1.2-2.6,2.1-4.1,2.7
	C298.3,152.6,296.5,153,294.8,153L294.8,153z M294.7,148c1.4,0,2.7-0.3,3.9-1c1.1-0.7,2-1.6,2.6-2.8c0.6-1.3,0.9-2.7,0.9-4.1
	c0-1.1-0.2-2.2-0.5-3.2c-0.3-0.9-0.8-1.8-1.5-2.5c-0.7-0.7-1.4-1.2-2.3-1.6c-1-0.4-2-0.6-3-0.6c-1.4,0-2.7,0.3-3.9,1
	c-1.1,0.6-2,1.5-2.6,2.6c-0.6,1.3-1,2.7-0.9,4.1c0,1.1,0.2,2.2,0.5,3.2c0.3,0.9,0.8,1.8,1.5,2.5c0.7,0.7,1.4,1.2,2.3,1.6
	C292.6,147.8,293.7,148,294.7,148L294.7,148z M318.1,152.9c-1.8,0-3.6-0.3-5.3-1c-1.5-0.7-2.9-1.8-4-3l3.6-3.6
	c0.7,0.9,1.6,1.6,2.7,2.1c1.1,0.5,2.2,0.8,3.4,0.8c1,0.1,1.9-0.2,2.7-0.6c0.6-0.4,1-1,1-1.8c0-0.6-0.2-1.2-0.6-1.7
	c-0.5-0.5-1-0.8-1.7-1.1c-0.7-0.3-1.5-0.6-2.3-0.9c-0.8-0.3-1.7-0.6-2.5-1c-0.8-0.4-1.6-0.8-2.3-1.4c-0.7-0.6-1.3-1.3-1.7-2.1
	c-1.8-3.6-0.2-8,3.5-9.6c1.4-0.6,3-0.9,4.5-0.9c1.6,0,3.2,0.3,4.8,0.9c1.4,0.6,2.6,1.4,3.6,2.5l-3.6,3.5c-0.7-0.7-1.4-1.3-2.3-1.7
	c-0.8-0.4-1.7-0.6-2.6-0.6c-0.8,0-1.6,0.1-2.3,0.5c-0.5,0.3-0.9,0.9-0.8,1.6c0,0.6,0.2,1.2,0.6,1.6c0.5,0.4,1.1,0.8,1.7,1
	c0.7,0.3,1.5,0.6,2.3,0.8c0.8,0.3,1.7,0.6,2.5,1c0.8,0.4,1.6,0.9,2.3,1.4c0.7,0.6,1.3,1.3,1.7,2.2c0.5,1,0.7,2.1,0.6,3.3
	c0.1,2.2-0.8,4.2-2.5,5.6C323.4,152.3,321.1,152.9,318.1,152.9L318.1,152.9z M337.4,145.9v-4.7h12.4v4.7H337.4z M372.5,152.9
	c-1.8,0-3.5-0.3-5.1-1c-3.1-1.3-5.6-3.7-6.9-6.8c-1.3-3.2-1.3-6.9,0-10.1c0.6-1.5,1.6-2.9,2.7-4.1c1.2-1.2,2.6-2.1,4.1-2.7
	c3.4-1.3,7.1-1.3,10.4,0c1.5,0.6,2.9,1.5,4,2.6l-3.7,3.7c-0.7-0.7-1.5-1.3-2.4-1.7c-1-0.4-2.1-0.6-3.2-0.6c-1,0-2,0.2-3,0.5
	c-0.9,0.3-1.7,0.9-2.3,1.6c-0.7,0.7-1.2,1.5-1.5,2.5c-0.7,2.1-0.7,4.3,0,6.4c0.3,0.9,0.9,1.7,1.5,2.5c0.7,0.7,1.5,1.2,2.3,1.6
	c0.9,0.4,2,0.6,3,0.6c1.1,0,2.3-0.2,3.3-0.6c0.9-0.4,1.7-0.9,2.4-1.7l3.7,3.7c-1.2,1.1-2.6,2-4.1,2.6
	C376.2,152.6,374.4,153,372.5,152.9L372.5,152.9z M395,152.9c-1.9,0-3.7-0.4-5.4-1.3c-1.5-0.8-2.8-2.1-3.7-3.6
	c-0.9-1.6-1.4-3.4-1.3-5.3v-15h5.6v15.4c0,0.9,0.2,1.8,0.6,2.6c0.4,0.7,1,1.3,1.7,1.7c0.8,0.4,1.6,0.6,2.4,0.6
	c0.9,0,1.7-0.2,2.5-0.6c0.7-0.4,1.3-1,1.7-1.7c0.4-0.8,0.6-1.7,0.6-2.5v-15.4h5.5v15.1c0,1.8-0.4,3.6-1.3,5.2
	c-0.8,1.5-2.1,2.8-3.6,3.6C398.7,152.5,396.8,153,395,152.9L395,152.9z M409.6,152.6v-24.8h5.5v24.8H409.6z M413.9,142.3v-4.1h5.2
	c0.9,0.1,1.8-0.2,2.6-0.8c1.2-1.3,1.2-3.2,0-4.5c-0.7-0.6-1.6-0.9-2.5-0.9h-5.3v-4.3h5.9c1.5,0,3,0.3,4.3,0.9
	c1.2,0.6,2.2,1.5,2.9,2.6c1.4,2.3,1.4,5.3,0,7.6c-0.7,1.1-1.7,2-2.9,2.5c-1.4,0.6-2.9,1-4.5,0.9H413.9z M423.2,152.6l-7.8-10.7
	l5.1-1.4l9.2,12.1H423.2z M438.9,152.9c-1.8,0-3.6-0.3-5.3-1c-1.5-0.7-2.9-1.8-4-3l3.6-3.6c0.7,0.9,1.6,1.6,2.7,2.1
	c1.1,0.5,2.2,0.8,3.4,0.8c1,0.1,1.9-0.2,2.7-0.6c0.6-0.4,1-1,1-1.8c0-0.6-0.2-1.2-0.6-1.7c-0.5-0.5-1-0.8-1.7-1.1
	c-0.7-0.3-1.5-0.6-2.3-0.9c-0.8-0.3-1.7-0.6-2.5-1c-0.8-0.4-1.6-0.8-2.3-1.4c-0.7-0.6-1.3-1.3-1.7-2.1c-1.8-3.6-0.2-8,3.5-9.6
	c1.4-0.6,3-0.9,4.5-0.9c1.6,0,3.2,0.3,4.8,0.9c1.4,0.6,2.6,1.4,3.6,2.5l-3.6,3.5c-0.7-0.7-1.4-1.3-2.3-1.7c-0.8-0.4-1.7-0.6-2.6-0.6
	c-0.8,0-1.6,0.1-2.3,0.5c-0.5,0.3-0.9,0.9-0.8,1.6c0,0.6,0.2,1.2,0.6,1.6c0.5,0.4,1.1,0.8,1.7,1c0.7,0.3,1.5,0.6,2.3,0.8
	s1.7,0.6,2.5,1c0.8,0.4,1.6,0.9,2.3,1.4c0.7,0.6,1.3,1.3,1.7,2.2c0.5,1,0.7,2.1,0.6,3.3c0.1,2.2-0.8,4.2-2.5,5.6
	C444.2,152.3,441.9,152.9,438.9,152.9L438.9,152.9z M464,153c-1.8,0-3.5-0.3-5.2-1c-1.6-0.6-3-1.6-4.2-2.7c-1.2-1.2-2.1-2.6-2.8-4.1
	c-1.3-3.2-1.3-6.9,0-10.1c0.6-1.5,1.6-2.9,2.7-4.1c1.2-1.2,2.6-2.1,4.1-2.7c3.3-1.3,7-1.3,10.3,0c1.5,0.6,3,1.5,4.1,2.7
	c1.2,1.2,2.1,2.5,2.8,4.1c1.3,3.2,1.3,6.9,0,10.1c-1.3,3.1-3.8,5.5-6.9,6.8C467.5,152.6,465.8,153,464,153L464,153z M463.9,148
	c1.4,0,2.7-0.3,3.9-1c1.1-0.7,2-1.6,2.6-2.8c0.6-1.3,0.9-2.7,0.9-4.1c0-1.1-0.2-2.2-0.5-3.2c-0.3-0.9-0.8-1.8-1.5-2.5
	c-0.7-0.7-1.5-1.2-2.3-1.6c-1-0.4-2-0.6-3-0.6c-1.4,0-2.7,0.3-3.9,1c-1.1,0.6-2,1.6-2.6,2.7c-0.6,1.3-1,2.7-0.9,4.1
	c0,1.1,0.2,2.2,0.5,3.2c0.3,0.9,0.8,1.8,1.5,2.5c0.7,0.7,1.4,1.2,2.3,1.6C461.9,147.8,462.9,148,463.9,148L463.9,148z M487.4,152.9
	c-1.8,0-3.6-0.3-5.3-1c-1.5-0.7-2.9-1.8-4-3l3.6-3.6c0.7,0.9,1.6,1.6,2.7,2.1c1.1,0.5,2.2,0.8,3.4,0.8c1,0.1,1.9-0.2,2.7-0.6
	c0.6-0.4,1-1,1-1.8c0-0.6-0.2-1.2-0.6-1.7c-0.5-0.5-1.1-0.8-1.7-1.1c-0.7-0.3-1.5-0.6-2.3-0.9c-0.8-0.3-1.7-0.6-2.5-1
	c-0.8-0.4-1.6-0.8-2.3-1.4c-0.7-0.6-1.3-1.3-1.7-2.1c-1.8-3.6-0.2-8,3.5-9.6c1.4-0.6,3-0.9,4.5-0.9c1.6,0,3.3,0.3,4.8,0.9
	c1.4,0.6,2.6,1.4,3.6,2.5l-3.6,3.5c-0.7-0.7-1.4-1.3-2.3-1.7c-0.8-0.4-1.7-0.6-2.6-0.6c-0.8,0-1.6,0.1-2.3,0.5
	c-0.5,0.3-0.9,0.9-0.8,1.6c0,0.6,0.2,1.2,0.6,1.6c0.5,0.4,1.1,0.8,1.7,1c0.7,0.3,1.5,0.6,2.3,0.8c0.8,0.3,1.7,0.6,2.5,1
	c0.8,0.4,1.6,0.9,2.3,1.4c0.7,0.6,1.3,1.3,1.7,2.2c0.4,1,0.7,2.1,0.6,3.3c0.1,2.2-0.8,4.2-2.5,5.6
	C492.7,152.3,490.4,152.9,487.4,152.9L487.4,152.9z"/>
<path class="st0" d="M7.5,82.4c-2.3,0-4.4,3.7-4.2,9.3c0.3,6.6,5,13.4,5,19.8c0,5.5-8.4,11.5-8.3,22.8c0.1,12.9,6.5,20,24.2,20
	c17.7,0,22-8.4,22-19.4c0-10.1-6.5-13.5-6.5-21c0-7.9,4.2-11.5,5-16c0.9-5.3-2-7.6-4.1-6.8c-1.9,0.8-1,5.7-7.7,5.9
	c-3.2,0.1-5.6-2.9-5.6-10.3c0-7.4-7.5-8.2-7.9-0.9C19.2,87.8,18.5,92,14,92C9.1,92,10.5,82.5,7.5,82.4L7.5,82.4z"/>
<path class="st0" d="M19.1,96.8h8.3l-1.4-69.6h-5.4L19.1,96.8z"/>
<path class="st0" d="M31.5,20.1c-0.4-4.5-0.2-9,0.6-13.4c1.3-6.5-0.4-10.2-4-1.8l-8.6,20.3c-0.3,0.8-0.9,1.1,0.2,2.8
	c0.4,0.5,0.7,1.2,0.8,1.8H26c0-0.9,1.1-3.4,3-5C30.2,23.8,31.6,21.5,31.5,20.1L31.5,20.1z"/>
<path class="st0" d="M25.6,8.2l-0.8-0.4c-0.7-0.6,0-2.1,0.9-2l0.8,0.4C26.8,6.7,26.2,8.2,25.6,8.2L25.6,8.2z"/>
<path class="st0" d="M24.2,11.5l-0.8-0.4c-0.7-0.6,0-2.1,0.9-2l0.9,0.4C25.4,9.9,24.8,11.5,24.2,11.5z"/>
<path class="st0" d="M22.8,14.8l-0.8-0.4c-0.7-0.6,0-2.1,0.9-2l0.8,0.4C24,13.2,23.4,14.7,22.8,14.8L22.8,14.8z"/>
<path class="st0" d="M21.4,18.1l-0.8-0.4c-0.7-0.6,0-2.1,0.9-2l0.8,0.4C22.6,16.5,22,18,21.4,18.1L21.4,18.1z"/>
<path class="st0" d="M20,21.4L19.1,21c-0.7-0.6,0-2.1,0.9-2l0.8,0.4C21.2,19.8,20.5,21.3,20,21.4z"/>
<path class="st0" d="M18.6,24.6l-0.8-0.4c-0.7-0.6,0-2.1,0.9-2l0.8,0.4C19.8,23.1,19.2,24.6,18.6,24.6L18.6,24.6z"/>
<path class="st1" d="M372.7,110.9V38.2h20.4v72.7H372.7z M389.4,110.9V93.5h34v17.4H389.4z M424.1,110.9l27.7-72.7h20.8l27.4,72.7
	h-21.3l-20.3-61.8h7.3l-20.9,61.8H424.1z M442.1,98.6V82.7h40.6v15.9H442.1z"/>
</svg>
