<?xml version="1.0" encoding="utf-8"?>
<svg xmlns="http://www.w3.org/2000/svg" viewBox="0 0 500 500" xmlns:bx="https://boxy-svg.com" width="500px" height="500px"><defs><bx:export><bx:file format="svg"/></bx:export></defs><g id="Capa_1" transform="matrix(1, 0, 0, 1, -80.00795, -8.248569)"><path classname="cls-1" d="M 176.802 269.211 C 171.746 269.246 166.734 268.272 162.058 266.347 C 148.085 260.657 138.989 247.027 139.097 231.939 C 139.054 226.918 140.063 221.943 142.061 217.335 C 143.993 212.896 146.789 208.887 150.286 205.54 C 153.841 202.139 158.027 199.469 162.609 197.679 C 167.422 195.782 172.554 194.829 177.726 194.87 C 183.531 194.789 189.289 195.937 194.619 198.238 C 199.482 200.336 203.798 203.522 207.237 207.55 L 196.311 218.46 C 194.157 215.6 191.357 213.289 188.14 211.717 C 184.813 210.176 181.182 209.407 177.516 209.466 C 173.557 209.411 169.652 210.39 166.187 212.307 C 162.896 214.132 160.188 216.848 158.372 220.144 C 156.435 223.768 155.467 227.831 155.563 231.939 C 155.472 236.056 156.422 240.13 158.326 243.781 C 160.061 247.082 162.674 249.84 165.876 251.751 C 169.224 253.693 173.041 254.681 176.911 254.606 C 180.645 254.717 184.347 253.892 187.682 252.208 C 190.61 250.637 192.994 248.216 194.518 245.263 C 196.213 241.821 197.036 238.016 196.916 234.182 L 207.54 241.329 L 175.375 240.817 L 175.375 227.245 L 213.259 227.245 L 213.259 229.573 C 213.259 238.217 211.707 245.486 208.603 251.378 C 205.754 257.015 201.273 261.664 195.744 264.718 C 189.914 267.798 183.395 269.345 176.802 269.211 L 176.802 269.211 Z M 243.593 269.211 C 239.387 269.294 235.226 268.328 231.487 266.401 C 228.08 264.628 225.235 261.941 223.269 258.641 C 221.248 255.183 220.222 251.232 220.305 247.227 L 220.305 218.46 L 235.926 218.46 L 235.926 247.048 C 235.889 248.558 236.185 250.058 236.795 251.44 C 237.347 252.639 238.258 253.637 239.402 254.296 C 240.681 255.01 242.129 255.364 243.593 255.32 C 245.66 255.418 247.669 254.617 249.102 253.124 C 250.46 251.657 251.143 249.64 251.143 247.048 L 251.143 218.46 L 266.764 218.46 L 266.764 247.172 C 266.85 251.202 265.827 255.177 263.807 258.665 C 261.847 261.952 259.02 264.636 255.636 266.425 C 251.918 268.347 247.777 269.305 243.593 269.211 L 243.593 269.211 Z M 284.433 211.616 C 282.143 211.685 279.932 210.773 278.357 209.109 C 275.16 205.672 275.16 200.348 278.357 196.911 C 279.949 195.277 282.154 194.387 284.433 194.459 C 286.698 194.383 288.888 195.274 290.455 196.911 C 293.59 200.373 293.59 205.647 290.455 209.109 C 288.904 210.776 286.709 211.69 284.433 211.616 Z M 276.565 268.085 L 276.565 218.46 L 292.193 218.46 L 292.193 268.085 L 276.565 268.085 Z M 299.03 231.707 L 299.03 218.46 L 337.124 218.46 L 337.124 231.707 L 299.03 231.707 Z M 310.266 268.062 L 310.266 197.935 L 325.887 197.935 L 325.887 268.085 L 310.266 268.062 Z M 363.671 269.11 C 359.363 269.179 355.127 268.01 351.464 265.742 C 347.879 263.473 344.956 260.299 342.99 256.539 C 340.864 252.441 339.797 247.877 339.886 243.261 C 339.797 238.648 340.864 234.086 342.99 229.992 C 344.962 226.25 347.884 223.094 351.464 220.843 C 355.127 218.575 359.363 217.406 363.671 217.475 C 366.792 217.427 369.884 218.09 372.711 219.415 C 375.31 220.638 377.569 222.479 379.292 224.777 C 380.994 227.043 381.99 229.761 382.155 232.591 L 382.155 254.032 C 381.99 256.853 381.015 259.566 379.346 261.846 C 377.637 264.16 375.37 266.005 372.758 267.208 C 369.909 268.514 366.804 269.163 363.671 269.11 L 363.671 269.11 Z M 366.837 254.987 C 369.88 255.109 372.825 253.896 374.899 251.665 C 376.993 249.368 378.107 246.344 378.003 243.238 C 378.044 241.115 377.57 239.015 376.622 237.115 C 375.747 235.397 374.401 233.963 372.742 232.979 C 369.149 231.004 364.796 231.004 361.203 232.979 C 359.5 233.972 358.1 235.41 357.152 237.139 C 355.203 240.951 355.186 245.464 357.106 249.291 C 358.022 251.025 359.4 252.472 361.087 253.473 C 362.825 254.503 364.817 255.027 366.837 254.987 L 366.837 254.987 Z M 377.328 268.085 L 377.328 254.707 L 379.656 242.664 L 377.328 230.612 L 377.328 218.46 L 392.654 218.46 L 392.654 268.085 L 377.328 268.085 Z M 403.712 268.085 L 403.712 218.46 L 419.333 218.46 L 419.333 268.085 L 403.712 268.085 Z M 419.333 240.817 L 412.799 235.711 C 414.098 229.927 416.276 225.434 419.333 222.232 C 422.437 219.034 426.651 217.436 432.098 217.436 C 434.242 217.393 436.375 217.757 438.384 218.507 C 440.2 219.232 441.823 220.369 443.125 221.828 L 433.813 233.569 C 433.107 232.803 432.233 232.211 431.26 231.838 C 430.154 231.413 428.976 231.205 427.791 231.225 C 425.475 231.104 423.217 231.976 421.583 233.623 C 420.073 235.222 419.318 237.62 419.318 240.817 L 419.333 240.817 Z M 139.097 309.578 L 139.097 284.746 L 144.614 284.746 L 144.614 309.578 L 139.097 309.578 Z M 149.417 309.578 L 149.417 284.746 L 153.297 284.746 L 154.942 289.705 L 154.942 309.563 L 149.417 309.578 Z M 166.536 309.578 L 151.916 290.845 L 153.29 284.762 L 167.909 303.494 L 166.536 309.578 Z M 166.536 309.578 L 165.062 304.619 L 165.062 284.762 L 170.579 284.762 L 170.579 309.594 L 166.536 309.578 Z M 182.312 309.966 C 180.51 310.008 178.719 309.667 177.058 308.965 C 175.525 308.237 174.157 307.201 173.039 305.923 L 176.624 302.369 C 177.364 303.242 178.265 303.964 179.278 304.495 C 180.329 305.025 181.492 305.291 182.669 305.271 C 183.619 305.328 184.566 305.106 185.393 304.635 C 186.006 304.266 186.373 303.596 186.355 302.881 C 186.382 302.267 186.154 301.669 185.726 301.228 C 185.241 300.768 184.676 300.399 184.058 300.142 C 183.36 299.831 182.599 299.544 181.769 299.257 C 180.938 298.97 180.116 298.66 179.293 298.295 C 178.482 297.936 177.721 297.475 177.027 296.921 C 176.328 296.36 175.759 295.653 175.359 294.85 C 173.527 291.227 175.158 286.812 178.905 285.25 C 180.34 284.652 181.883 284.359 183.437 284.389 C 185.07 284.369 186.69 284.678 188.202 285.297 C 189.564 285.852 190.784 286.706 191.771 287.796 L 188.186 291.342 C 187.531 290.647 186.766 290.064 185.92 289.619 C 185.114 289.237 184.229 289.045 183.336 289.061 C 182.537 289.019 181.742 289.207 181.047 289.604 C 180.51 289.934 180.191 290.526 180.209 291.156 C 180.18 291.74 180.41 292.308 180.838 292.708 C 181.33 293.137 181.895 293.476 182.506 293.709 C 183.197 293.988 183.957 294.268 184.795 294.547 C 185.633 294.826 186.448 295.16 187.271 295.532 C 188.083 295.907 188.845 296.385 189.537 296.953 C 190.243 297.551 190.812 298.295 191.205 299.133 C 191.658 300.155 191.876 301.267 191.841 302.385 C 191.938 304.539 190.997 306.61 189.311 307.956 C 187.62 309.306 185.292 309.966 182.312 309.966 L 182.312 309.966 Z M 192.757 289.581 L 192.757 284.762 L 213.81 284.762 L 213.81 289.581 L 192.757 289.581 Z M 200.517 309.578 L 200.517 285.119 L 206.034 285.119 L 206.034 309.578 L 200.517 309.578 Z M 216.898 309.578 L 216.898 284.746 L 222.416 284.746 L 222.416 309.578 L 216.898 309.578 Z M 221.12 299.35 L 221.12 295.276 L 226.35 295.276 C 227.278 295.334 228.193 295.031 228.903 294.431 C 230.082 293.162 230.082 291.198 228.903 289.93 C 228.212 289.308 227.3 288.992 226.373 289.053 L 221.12 289.053 L 221.12 284.762 L 227.017 284.762 C 228.514 284.73 229.996 285.049 231.347 285.693 C 232.537 286.273 233.546 287.166 234.265 288.277 C 235.661 290.622 235.661 293.544 234.265 295.889 C 233.537 296.998 232.513 297.879 231.309 298.435 C 229.91 299.075 228.384 299.388 226.847 299.35 L 221.12 299.35 Z M 230.432 309.578 L 222.672 298.893 L 227.731 297.519 L 236.942 309.578 L 230.432 309.578 Z M 249.234 309.966 C 247.341 310.01 245.469 309.561 243.802 308.662 C 242.274 307.823 241.009 306.577 240.147 305.062 C 239.254 303.457 238.802 301.644 238.836 299.808 L 238.836 284.762 L 244.384 284.762 L 244.384 300.126 C 244.361 301.022 244.581 301.907 245.02 302.687 C 245.426 303.4 246.03 303.979 246.759 304.356 C 247.513 304.748 248.353 304.948 249.203 304.938 C 250.059 304.957 250.906 304.757 251.663 304.356 C 252.363 303.971 252.941 303.399 253.331 302.703 C 253.758 301.924 253.97 301.045 253.944 300.157 L 253.944 284.762 L 259.501 284.762 L 259.501 299.839 C 259.536 301.67 259.086 303.477 258.197 305.077 C 257.348 306.585 256.096 307.826 254.581 308.662 C 252.941 309.551 251.099 310 249.234 309.966 L 249.234 309.966 Z M 263.924 309.578 L 263.924 284.746 L 267.858 284.746 L 277.628 299.994 L 275.626 299.994 L 285.365 284.777 L 289.33 284.777 L 289.33 309.609 L 283.813 309.609 L 283.813 294.089 L 284.798 294.33 L 278.435 304.239 L 274.78 304.239 L 268.456 294.33 L 269.402 294.089 L 269.402 309.609 L 263.924 309.578 Z M 294.079 309.578 L 294.079 284.746 L 299.596 284.746 L 299.596 309.578 L 294.079 309.578 Z M 298.293 289.511 L 298.293 284.762 L 311.718 284.762 L 311.718 289.511 L 298.293 289.511 Z M 298.293 299.211 L 298.293 294.601 L 310.662 294.601 L 310.662 299.218 L 298.293 299.211 Z M 298.293 309.578 L 298.293 304.798 L 311.896 304.798 L 311.896 309.578 L 298.293 309.578 Z M 315.691 309.578 L 315.691 284.746 L 319.571 284.746 L 321.224 289.705 L 321.224 309.563 L 315.691 309.578 Z M 332.809 309.578 L 318.182 290.845 L 319.555 284.762 L 334.175 303.494 L 332.809 309.578 Z M 332.809 309.578 L 331.327 304.65 L 331.327 284.762 L 336.844 284.762 L 336.844 309.594 L 332.809 309.578 Z M 339.941 289.581 L 339.941 284.762 L 361.032 284.762 L 361.032 289.581 L 339.941 289.581 Z M 347.701 309.578 L 347.701 285.119 L 353.218 285.119 L 353.218 309.578 L 347.701 309.578 Z M 374.628 309.997 C 372.851 310.017 371.089 309.682 369.444 309.012 C 367.89 308.378 366.475 307.447 365.277 306.272 C 364.087 305.107 363.144 303.714 362.507 302.175 C 361.194 298.94 361.194 295.322 362.507 292.087 C 363.142 290.564 364.073 289.182 365.246 288.021 C 366.431 286.856 367.834 285.936 369.374 285.313 C 372.7 284.03 376.384 284.03 379.711 285.313 C 381.253 285.941 382.659 286.861 383.854 288.021 C 385.036 289.184 385.973 290.572 386.609 292.103 C 387.915 295.338 387.915 298.955 386.609 302.191 C 385.978 303.718 385.046 305.103 383.87 306.265 C 382.687 307.437 381.284 308.362 379.742 308.988 C 378.121 309.663 376.383 310.006 374.628 309.997 L 374.628 309.997 Z M 374.558 304.969 C 375.916 304.999 377.256 304.661 378.438 303.991 C 379.549 303.34 380.447 302.38 381.022 301.228 C 381.654 299.959 381.968 298.556 381.938 297.139 C 381.952 296.055 381.773 294.978 381.41 293.957 C 381.082 293.041 380.567 292.203 379.897 291.497 C 379.241 290.819 378.447 290.289 377.569 289.945 C 376.613 289.569 375.593 289.382 374.566 289.394 C 373.209 289.368 371.87 289.703 370.686 290.364 C 369.586 290.98 368.686 291.898 368.094 293.01 C 367.456 294.28 367.141 295.687 367.178 297.108 C 367.166 298.196 367.344 299.278 367.706 300.305 C 368.031 301.222 368.538 302.064 369.196 302.78 C 369.846 303.477 370.64 304.022 371.524 304.379 C 372.486 304.773 373.518 304.974 374.558 304.969 L 374.558 304.969 Z M 398.001 309.966 C 396.198 310.009 394.407 309.668 392.747 308.965 C 391.21 308.239 389.839 307.204 388.72 305.923 L 392.305 302.369 C 393.046 303.24 393.947 303.962 394.959 304.495 C 396.01 305.025 397.173 305.291 398.35 305.271 C 399.3 305.328 400.247 305.106 401.074 304.635 C 401.689 304.267 402.059 303.598 402.044 302.881 C 402.067 302.266 401.837 301.669 401.407 301.228 C 400.923 300.766 400.357 300.398 399.739 300.142 C 399.048 299.831 398.288 299.544 397.45 299.257 C 396.612 298.97 395.797 298.66 394.974 298.295 C 394.163 297.936 393.402 297.475 392.709 296.921 C 392.009 296.36 391.44 295.653 391.04 294.85 C 389.208 291.227 390.839 286.812 394.586 285.25 C 396.024 284.652 397.57 284.358 399.126 284.389 C 400.757 284.369 402.374 284.678 403.883 285.297 C 405.245 285.852 406.465 286.706 407.453 287.796 L 403.867 291.342 C 403.212 290.647 402.447 290.064 401.601 289.619 C 400.795 289.237 399.91 289.045 399.017 289.061 C 398.22 289.018 397.428 289.206 396.736 289.604 C 396.194 289.93 395.87 290.523 395.89 291.156 C 395.861 291.74 396.091 292.308 396.519 292.708 C 397.011 293.137 397.576 293.476 398.187 293.709 C 398.885 293.988 399.646 294.268 400.476 294.547 C 401.307 294.826 402.137 295.16 402.952 295.532 C 403.764 295.907 404.526 296.385 405.218 296.953 C 405.924 297.551 406.493 298.295 406.886 299.133 C 407.34 300.155 407.557 301.267 407.522 302.385 C 407.619 304.539 406.678 306.61 404.993 307.956 C 403.301 309.296 400.97 309.966 398.001 309.966 L 398.001 309.966 Z M 417.222 302.967 L 417.222 298.256 L 429.638 298.256 L 429.638 302.967 L 417.222 302.967 Z M 452.398 309.966 C 450.637 309.981 448.889 309.651 447.254 308.996 C 444.128 307.744 441.638 305.285 440.347 302.175 C 439.031 298.941 439.031 295.321 440.347 292.087 C 440.979 290.562 441.91 289.179 443.086 288.021 C 444.275 286.866 445.677 285.954 447.215 285.336 C 450.567 284.063 454.269 284.063 457.621 285.336 C 459.116 285.939 460.483 286.821 461.648 287.935 L 457.955 291.66 C 457.286 290.951 456.477 290.389 455.58 290.007 C 454.561 289.592 453.468 289.389 452.367 289.41 C 451.351 289.397 450.341 289.581 449.395 289.953 C 448.516 290.295 447.721 290.825 447.067 291.505 C 446.404 292.216 445.89 293.052 445.554 293.965 C 444.83 296.024 444.83 298.269 445.554 300.328 C 445.892 301.24 446.406 302.076 447.067 302.788 C 447.726 303.463 448.519 303.992 449.395 304.34 C 450.338 304.727 451.349 304.92 452.367 304.907 C 453.498 304.93 454.622 304.727 455.673 304.309 C 456.584 303.927 457.407 303.365 458.094 302.656 L 461.819 306.381 C 460.62 307.486 459.232 308.367 457.722 308.981 C 456.03 309.658 454.221 309.993 452.398 309.966 L 452.398 309.966 Z M 474.825 309.966 C 472.944 310.006 471.086 309.556 469.432 308.662 C 467.9 307.828 466.634 306.58 465.777 305.062 C 464.882 303.457 464.426 301.645 464.457 299.808 L 464.457 284.762 L 470.014 284.762 L 470.014 300.126 C 469.992 301.021 470.209 301.905 470.642 302.687 C 471.048 303.4 471.652 303.979 472.38 304.356 C 473.135 304.748 473.974 304.948 474.825 304.938 C 475.681 304.958 476.528 304.757 477.285 304.356 C 477.986 303.973 478.564 303.4 478.953 302.703 C 479.382 301.924 479.597 301.046 479.574 300.157 L 479.574 284.762 L 485.122 284.762 L 485.122 299.839 C 485.158 301.67 484.708 303.477 483.819 305.077 C 482.97 306.585 481.717 307.826 480.202 308.662 C 478.554 309.557 476.7 310.007 474.825 309.966 L 474.825 309.966 Z M 489.514 309.578 L 489.514 284.746 L 495.032 284.746 L 495.032 309.578 L 489.514 309.578 Z M 493.728 299.35 L 493.728 295.276 L 498.958 295.276 C 499.887 295.334 500.801 295.031 501.511 294.431 C 502.69 293.162 502.69 291.198 501.511 289.93 C 500.821 289.308 499.909 288.992 498.982 289.053 L 493.728 289.053 L 493.728 284.762 L 499.626 284.762 C 501.122 284.73 502.605 285.049 503.956 285.693 C 505.145 286.27 506.152 287.164 506.866 288.277 C 508.272 290.62 508.272 293.547 506.866 295.889 C 506.144 297 505.121 297.883 503.917 298.435 C 502.518 299.075 500.992 299.388 499.455 299.35 L 493.728 299.35 Z M 503.04 309.578 L 495.28 298.893 L 500.34 297.519 L 509.551 309.578 L 503.04 309.578 Z M 518.793 309.966 C 516.99 310.009 515.199 309.668 513.539 308.965 C 512.002 308.239 510.631 307.204 509.512 305.923 L 513.097 302.369 C 513.838 303.24 514.739 303.962 515.751 304.495 C 516.802 305.025 517.965 305.291 519.142 305.271 C 520.092 305.328 521.039 305.106 521.866 304.635 C 522.481 304.267 522.851 303.598 522.836 302.881 C 522.859 302.266 522.629 301.669 522.199 301.228 C 521.715 300.766 521.149 300.398 520.531 300.142 C 519.84 299.831 519.08 299.544 518.242 299.257 C 517.404 298.97 516.589 298.66 515.766 298.295 C 514.955 297.936 514.194 297.475 513.501 296.921 C 512.801 296.36 512.232 295.653 511.832 294.85 C 510 291.227 511.631 286.812 515.378 285.25 C 516.816 284.652 518.361 284.358 519.918 284.389 C 521.549 284.369 523.166 284.678 524.675 285.297 C 526.037 285.852 527.257 286.706 528.245 287.796 L 524.659 291.342 C 524.004 290.647 523.239 290.064 522.393 289.619 C 521.587 289.237 520.702 289.045 519.809 289.061 C 519.012 289.018 518.22 289.206 517.528 289.604 C 516.986 289.93 516.662 290.523 516.682 291.156 C 516.653 291.74 516.883 292.308 517.311 292.708 C 517.803 293.137 518.368 293.476 518.979 293.709 C 519.677 293.988 520.438 294.268 521.307 294.547 C 522.176 294.826 522.968 295.16 523.783 295.532 C 524.595 295.907 525.357 296.385 526.048 296.953 C 526.755 297.551 527.324 298.295 527.717 299.133 C 528.17 300.155 528.388 301.267 528.353 302.385 C 528.45 304.539 527.509 306.61 525.823 307.956 C 524.085 309.296 521.742 309.966 518.793 309.966 L 518.793 309.966 Z M 543.881 309.997 C 542.105 310.017 540.342 309.682 538.697 309.012 C 537.146 308.378 535.733 307.447 534.538 306.272 C 533.345 305.108 532.4 303.714 531.76 302.175 C 530.447 298.94 530.447 295.322 531.76 292.087 C 532.395 290.564 533.326 289.182 534.499 288.021 C 535.684 286.856 537.087 285.936 538.627 285.313 C 541.953 284.03 545.638 284.03 548.964 285.313 C 550.507 285.939 551.914 286.859 553.108 288.021 C 554.292 289.183 555.231 290.571 555.87 292.103 C 557.176 295.338 557.176 298.955 555.87 302.191 C 554.575 305.281 552.1 307.728 548.995 308.988 C 547.375 309.663 545.636 310.006 543.881 309.997 L 543.881 309.997 Z M 543.811 304.969 C 545.169 304.996 546.509 304.659 547.691 303.991 C 548.799 303.336 549.696 302.377 550.275 301.228 C 550.901 299.957 551.212 298.555 551.183 297.139 C 551.201 296.055 551.022 294.977 550.655 293.957 C 550.328 293.043 549.815 292.205 549.15 291.497 C 548.494 290.819 547.7 290.29 546.822 289.945 C 545.866 289.569 544.846 289.382 543.819 289.394 C 542.462 289.365 541.122 289.7 539.939 290.364 C 538.832 290.996 537.934 291.937 537.355 293.073 C 536.717 294.342 536.402 295.749 536.439 297.17 C 536.427 298.258 536.605 299.34 536.967 300.367 C 537.291 301.286 537.801 302.128 538.464 302.842 C 539.114 303.539 539.909 304.085 540.792 304.441 C 541.755 304.812 542.78 304.991 543.811 304.969 L 543.811 304.969 Z M 567.254 309.966 C 565.452 310.008 563.661 309.667 562 308.965 C 560.463 308.239 559.092 307.204 557.973 305.923 L 561.558 302.369 C 562.301 303.238 563.201 303.96 564.212 304.495 C 565.263 305.024 566.427 305.29 567.603 305.271 C 568.554 305.328 569.5 305.106 570.327 304.635 C 570.959 304.272 571.342 303.594 571.328 302.866 C 571.355 302.25 571.125 301.651 570.692 301.213 C 570.207 300.751 569.642 300.383 569.023 300.126 C 568.333 299.816 567.572 299.529 566.742 299.242 C 565.911 298.955 565.081 298.644 564.266 298.279 C 563.455 297.921 562.694 297.459 562 296.906 C 561.298 296.345 560.726 295.638 560.324 294.834 C 558.501 291.222 560.119 286.821 563.847 285.25 C 565.282 284.652 566.825 284.359 568.379 284.389 C 570.012 284.37 571.632 284.679 573.144 285.297 C 574.503 285.852 575.721 286.706 576.706 287.796 L 573.121 291.342 C 572.467 290.645 571.701 290.063 570.855 289.619 C 570.048 289.237 569.163 289.045 568.271 289.061 C 567.474 289.02 566.682 289.208 565.989 289.604 C 565.447 289.93 565.123 290.523 565.143 291.156 C 565.114 291.742 565.347 292.311 565.78 292.708 C 566.271 293.139 566.836 293.478 567.448 293.709 C 568.141 293.988 568.902 294.268 569.729 294.547 C 570.56 294.834 571.39 295.16 572.213 295.532 C 573.024 295.909 573.786 296.386 574.479 296.953 C 575.185 297.551 575.754 298.295 576.147 299.133 C 576.594 300.157 576.809 301.268 576.775 302.385 C 576.876 304.54 575.935 306.613 574.246 307.956 C 572.564 309.296 570.234 309.966 567.254 309.966 L 567.254 309.966 Z" style="fill: rgb(255, 255, 255);"/><path classname="cls-2" d="M 87.353 239.467 C 85.025 239.428 82.93 243.121 83.186 248.779 C 83.489 255.429 88.176 262.18 88.176 268.605 C 88.176 274.107 79.787 280.075 79.865 291.381 C 79.942 304.262 86.383 311.332 104.037 311.332 C 121.691 311.332 126.013 302.897 126.013 291.932 C 126.013 281.844 119.51 278.468 119.51 270.926 C 119.51 262.995 123.716 259.379 124.5 254.94 C 125.423 249.686 122.513 247.296 120.364 248.127 C 118.455 248.903 119.324 253.846 112.666 253.985 C 109.469 254.055 107.11 251.06 107.11 243.641 C 107.11 236.223 99.629 235.416 99.179 242.695 C 99.04 244.852 98.357 249.011 93.895 249.035 C 88.928 249.042 90.317 239.552 87.353 239.467 L 87.353 239.467 Z" style="fill: rgb(255, 255, 255);"/><path classname="cls-2" d="M 98.962 253.776 L 107.226 253.776 L 105.791 184.215 L 100.39 184.215 L 98.962 253.776 Z" style="fill: rgb(255, 255, 255);"/><path classname="cls-2" d="M 111.347 177.092 C 110.915 172.619 111.114 168.108 111.937 163.69 C 113.233 157.164 111.572 153.486 107.964 161.929 L 99.319 182.198 C 98.977 182.974 98.411 183.331 99.559 184.953 C 99.981 185.477 100.25 186.108 100.335 186.776 L 105.837 186.776 C 105.837 185.861 106.9 183.424 108.84 181.794 C 110.035 180.785 111.471 178.52 111.347 177.092 L 111.347 177.092 Z" style="fill: rgb(255, 255, 255);"/><path classname="cls-1" d="M 106.45 163.295 L 107.226 163.295 L 107.226 165.918 L 106.45 165.918 L 106.45 163.295 Z" style="transform-box: fill-box; transform-origin: 50% 50%; fill: rgb(255, 255, 255);" transform="matrix(0.3933, -0.91941, 0.91941, 0.3933, -0.000003, -0.000005)"/><path classname="cls-2" d="M 105.442 165.266 L 104.603 164.909 C 103.944 164.319 104.603 162.806 105.48 162.868 L 106.311 163.225 C 106.675 163.69 106.024 165.211 105.442 165.266 L 105.442 165.266 Z" style="fill: rgb(255, 255, 255);"/><path classname="cls-1" d="M 105.049 166.572 L 105.825 166.572 L 105.825 169.194 L 105.049 169.194 L 105.049 166.572 Z" style="transform-box: fill-box; transform-origin: 50% 50%; fill: rgb(255, 255, 255);" transform="matrix(0.393461, -0.919341, 0.919341, 0.393461, -0.000008, 0.000013)"/><path classname="cls-2" d="M 104.037 168.548 L 103.199 168.183 C 102.539 167.594 103.199 166.08 104.076 166.142 L 104.953 166.523 C 105.271 166.965 104.619 168.486 104.037 168.548 Z" style="fill: rgb(255, 255, 255);"/><path classname="cls-1" d="M 103.65 169.85 L 104.426 169.85 L 104.426 172.473 L 103.65 172.473 L 103.65 169.85 Z" style="transform-box: fill-box; transform-origin: 50% 50%; fill: rgb(255, 255, 255);" transform="matrix(0.393621, -0.919273, 0.919273, 0.393621, 0.000002, -0.000007)"/><path classname="cls-2" d="M 102.625 171.823 L 101.794 171.466 C 101.135 170.876 101.794 169.355 102.663 169.425 L 103.502 169.782 C 103.874 170.24 103.222 171.761 102.625 171.823 L 102.625 171.823 Z" style="fill: rgb(255, 255, 255);"/><path classname="cls-1" d="M 102.239 173.122 L 103.015 173.122 L 103.015 175.744 L 102.239 175.744 L 102.239 173.122 Z" style="transform-box: fill-box; transform-origin: 50% 50%; fill: rgb(255, 255, 255);" transform="matrix(0.39314, -0.919479, 0.919479, 0.39314, -0.000003, 0.000017)"/><path classname="cls-2" d="M 101.236 175.097 L 100.398 174.74 C 99.738 174.151 100.398 172.63 101.274 172.7 L 102.105 173.057 C 102.469 173.507 101.849 175.059 101.236 175.097 L 101.236 175.097 Z" style="fill: rgb(255, 255, 255);"/><path classname="cls-1" d="M 100.85 176.395 L 101.626 176.395 L 101.626 179.018 L 100.85 179.018 L 100.85 176.395 Z" style="transform-box: fill-box; transform-origin: 50% 50%; fill: rgb(255, 255, 255);" transform="matrix(0.393461, -0.919341, 0.919341, 0.393461, 0.000006, 0.000002)"/><path classname="cls-2" d="M 99.831 178.372 L 98.993 178.015 C 98.333 177.425 98.993 175.904 99.87 175.974 L 100.708 176.331 C 101.073 176.789 100.413 178.318 99.831 178.372 Z" style="fill: rgb(255, 255, 255);"/><path classname="cls-1" d="M 99.444 179.673 L 100.22 179.673 L 100.22 182.296 L 99.444 182.296 L 99.444 179.673 Z" style="transform-box: fill-box; transform-origin: 50% 50%; fill: rgb(255, 255, 255);" transform="matrix(0.393461, -0.919341, 0.919341, 0.393461, -0.000001, 0.000002)"/><path classname="cls-2" d="M 98.434 181.647 L 97.596 181.267 C 96.937 180.677 97.596 179.156 98.465 179.226 L 99.303 179.583 C 99.668 180.072 99.016 181.593 98.434 181.647 L 98.434 181.647 Z" style="fill: rgb(255, 255, 255);"/><path d="M 452.6 267.884 L 452.6 195.18 L 473.017 195.18 L 473.017 267.884 L 452.6 267.884 Z M 469.245 267.884 L 469.245 250.525 L 503.25 250.525 L 503.25 267.884 L 469.245 267.884 Z M 503.963 267.884 L 531.643 195.18 L 552.471 195.18 L 579.864 267.884 L 558.602 267.884 L 538.278 206.099 L 545.627 206.099 L 524.768 267.884 L 503.963 267.884 Z M 521.943 255.631 L 521.943 239.699 L 562.582 239.699 L 562.582 255.631 L 521.943 255.631 Z" fill="#d88506"/></g></svg>