<?xml version="1.0" encoding="utf-8"?>
<svg xmlns="http://www.w3.org/2000/svg" viewBox="0 0 500 500" xmlns:bx="https://boxy-svg.com" width="500px" height="500px"><defs><bx:export><bx:file format="svg"/></bx:export></defs><g id="Capa_1" transform="matrix(0.797797, 0, 0, 0.800274, -171.726608, 14.079533)" style=""><path classname="cls-1" d="M 361.908 282.042 C 356.852 282.077 351.84 281.104 347.164 279.179 C 333.191 273.488 324.095 259.858 324.203 244.771 C 324.16 239.749 325.169 234.774 327.167 230.167 C 329.099 225.728 331.895 221.718 335.392 218.371 C 338.947 214.971 343.133 212.3 347.715 210.51 C 352.528 208.614 357.66 207.66 362.832 207.701 C 368.637 207.62 374.395 208.768 379.725 211.069 C 384.588 213.168 388.904 216.353 392.343 220.381 L 381.417 231.292 C 379.263 228.431 376.463 226.121 373.246 224.548 C 369.919 223.008 366.288 222.238 362.622 222.298 C 358.663 222.243 354.758 223.222 351.293 225.138 C 348.002 226.963 345.294 229.68 343.478 232.976 C 341.541 236.599 340.573 240.663 340.669 244.771 C 340.578 248.888 341.528 252.961 343.432 256.613 C 345.167 259.914 347.78 262.671 350.982 264.582 C 354.33 266.525 358.147 267.512 362.017 267.438 C 365.751 267.548 369.453 266.724 372.788 265.04 C 375.716 263.469 378.1 261.047 379.624 258.095 C 381.319 254.653 382.142 250.848 382.022 247.013 L 392.646 254.16 L 360.481 253.648 L 360.481 240.076 L 398.365 240.076 L 398.365 242.404 C 398.365 251.049 396.813 258.317 393.709 264.21 C 390.86 269.847 386.379 274.495 380.851 277.549 C 375.02 280.63 368.501 282.176 361.908 282.042 L 361.908 282.042 Z M 428.699 282.042 C 424.493 282.125 420.332 281.16 416.593 279.233 C 413.186 277.46 410.341 274.773 408.375 271.473 C 406.354 268.014 405.328 264.064 405.411 260.058 L 405.411 231.292 L 421.032 231.292 L 421.032 259.88 C 420.995 261.39 421.291 262.889 421.901 264.272 C 422.453 265.471 423.364 266.469 424.508 267.127 C 425.787 267.841 427.235 268.195 428.699 268.152 C 430.766 268.249 432.775 267.448 434.208 265.956 C 435.566 264.489 436.249 262.471 436.249 259.88 L 436.249 231.292 L 451.87 231.292 L 451.87 260.004 C 451.956 264.033 450.933 268.009 448.913 271.496 C 446.953 274.783 444.126 277.468 440.742 279.256 C 437.024 281.178 432.883 282.136 428.699 282.042 L 428.699 282.042 Z M 469.539 224.447 C 467.249 224.517 465.038 223.605 463.463 221.941 C 460.266 218.503 460.266 213.18 463.463 209.742 C 465.055 208.108 467.26 207.218 469.539 207.29 C 471.804 207.214 473.994 208.106 475.561 209.742 C 478.696 213.204 478.696 218.479 475.561 221.941 C 474.01 223.607 471.815 224.521 469.539 224.447 Z M 461.671 280.917 L 461.671 231.292 L 477.299 231.292 L 477.299 280.917 L 461.671 280.917 Z M 484.136 244.538 L 484.136 231.292 L 522.23 231.292 L 522.23 244.538 L 484.136 244.538 Z M 495.372 280.894 L 495.372 210.767 L 510.993 210.767 L 510.993 280.917 L 495.372 280.894 Z M 548.777 281.941 C 544.469 282.01 540.233 280.841 536.57 278.573 C 532.985 276.305 530.062 273.13 528.096 269.37 C 525.97 265.273 524.903 260.708 524.992 256.093 C 524.903 251.48 525.97 246.918 528.096 242.823 C 530.068 239.082 532.99 235.926 536.57 233.674 C 540.233 231.406 544.469 230.237 548.777 230.306 C 551.898 230.258 554.99 230.922 557.817 232.246 C 560.416 233.469 562.675 235.31 564.398 237.608 C 566.1 239.875 567.096 242.593 567.261 245.423 L 567.261 266.864 C 567.096 269.684 566.121 272.398 564.452 274.678 C 562.743 276.992 560.476 278.836 557.864 280.04 C 555.015 281.345 551.91 281.995 548.777 281.941 L 548.777 281.941 Z M 551.943 267.818 C 554.986 267.94 557.931 266.727 560.005 264.497 C 562.099 262.2 563.213 259.176 563.109 256.069 C 563.15 253.947 562.676 251.846 561.728 249.947 C 560.853 248.228 559.507 246.794 557.848 245.811 C 554.255 243.835 549.902 243.835 546.309 245.811 C 544.606 246.804 543.206 248.242 542.258 249.97 C 540.309 253.782 540.292 258.295 542.212 262.122 C 543.128 263.856 544.506 265.304 546.193 266.305 C 547.931 267.334 549.923 267.858 551.943 267.818 L 551.943 267.818 Z M 562.434 280.917 L 562.434 267.539 L 564.762 255.495 L 562.434 243.444 L 562.434 231.292 L 577.76 231.292 L 577.76 280.917 L 562.434 280.917 Z M 588.818 280.917 L 588.818 231.292 L 604.439 231.292 L 604.439 280.917 L 588.818 280.917 Z M 604.439 253.648 L 597.905 248.542 C 599.204 242.758 601.382 238.265 604.439 235.063 C 607.543 231.866 611.757 230.267 617.204 230.267 C 619.348 230.225 621.481 230.588 623.49 231.338 C 625.306 232.064 626.929 233.201 628.231 234.66 L 618.919 246.4 C 618.213 245.635 617.339 245.043 616.366 244.67 C 615.26 244.244 614.082 244.036 612.897 244.057 C 610.581 243.935 608.323 244.807 606.689 246.455 C 605.179 248.053 604.424 250.451 604.424 253.648 L 604.439 253.648 Z M 324.203 322.41 L 324.203 297.578 L 329.72 297.578 L 329.72 322.41 L 324.203 322.41 Z M 334.523 322.41 L 334.523 297.578 L 338.403 297.578 L 340.048 302.536 L 340.048 322.394 L 334.523 322.41 Z M 351.642 322.41 L 337.022 303.677 L 338.396 297.593 L 353.015 316.326 L 351.642 322.41 Z M 351.642 322.41 L 350.168 317.451 L 350.168 297.593 L 355.685 297.593 L 355.685 322.425 L 351.642 322.41 Z M 367.418 322.798 C 365.616 322.839 363.825 322.498 362.164 321.796 C 360.631 321.068 359.263 320.033 358.145 318.755 L 361.73 315.2 C 362.47 316.073 363.371 316.795 364.384 317.327 C 365.435 317.857 366.598 318.123 367.775 318.103 C 368.725 318.159 369.672 317.938 370.499 317.466 C 371.112 317.098 371.479 316.428 371.461 315.713 C 371.488 315.099 371.26 314.501 370.832 314.06 C 370.347 313.599 369.782 313.231 369.164 312.973 C 368.466 312.663 367.705 312.376 366.875 312.089 C 366.044 311.802 365.222 311.491 364.399 311.126 C 363.588 310.768 362.827 310.306 362.133 309.753 C 361.434 309.191 360.865 308.484 360.465 307.681 C 358.633 304.059 360.264 299.643 364.011 298.082 C 365.446 297.484 366.989 297.191 368.543 297.221 C 370.176 297.201 371.796 297.51 373.308 298.129 C 374.67 298.684 375.89 299.538 376.877 300.627 L 373.292 304.174 C 372.637 303.478 371.872 302.896 371.026 302.451 C 370.22 302.068 369.335 301.877 368.442 301.892 C 367.643 301.85 366.848 302.039 366.153 302.435 C 365.616 302.765 365.297 303.357 365.315 303.987 C 365.286 304.572 365.516 305.14 365.944 305.539 C 366.436 305.969 367.001 306.308 367.612 306.54 C 368.303 306.82 369.063 307.099 369.901 307.378 C 370.739 307.658 371.554 307.991 372.377 308.364 C 373.189 308.739 373.951 309.216 374.643 309.784 C 375.349 310.382 375.918 311.126 376.311 311.965 C 376.764 312.987 376.982 314.098 376.947 315.216 C 377.044 317.371 376.103 319.442 374.417 320.788 C 372.726 322.138 370.398 322.798 367.418 322.798 L 367.418 322.798 Z M 377.863 302.412 L 377.863 297.593 L 398.916 297.593 L 398.916 302.412 L 377.863 302.412 Z M 385.623 322.41 L 385.623 297.95 L 391.14 297.95 L 391.14 322.41 L 385.623 322.41 Z M 402.004 322.41 L 402.004 297.578 L 407.522 297.578 L 407.522 322.41 L 402.004 322.41 Z M 406.226 312.182 L 406.226 308.108 L 411.456 308.108 C 412.384 308.165 413.299 307.862 414.009 307.262 C 415.188 305.993 415.188 304.03 414.009 302.761 C 413.318 302.14 412.406 301.824 411.479 301.884 L 406.226 301.884 L 406.226 297.593 L 412.123 297.593 C 413.62 297.561 415.102 297.88 416.453 298.524 C 417.643 299.104 418.652 299.998 419.371 301.108 C 420.767 303.454 420.767 306.375 419.371 308.721 C 418.643 309.829 417.619 310.711 416.415 311.266 C 415.016 311.906 413.49 312.219 411.953 312.182 L 406.226 312.182 Z M 415.538 322.41 L 407.778 311.724 L 412.837 310.35 L 422.048 322.41 L 415.538 322.41 Z M 434.34 322.798 C 432.447 322.842 430.575 322.392 428.908 321.494 C 427.38 320.655 426.115 319.408 425.253 317.893 C 424.36 316.288 423.908 314.476 423.942 312.64 L 423.942 297.593 L 429.49 297.593 L 429.49 312.958 C 429.467 313.853 429.687 314.738 430.126 315.519 C 430.532 316.231 431.136 316.811 431.865 317.187 C 432.619 317.579 433.459 317.779 434.309 317.769 C 435.165 317.788 436.012 317.588 436.769 317.187 C 437.469 316.803 438.047 316.23 438.437 315.534 C 438.864 314.755 439.076 313.877 439.05 312.989 L 439.05 297.593 L 444.607 297.593 L 444.607 312.671 C 444.642 314.501 444.192 316.308 443.303 317.909 C 442.454 319.417 441.202 320.658 439.687 321.494 C 438.047 322.382 436.205 322.831 434.34 322.798 L 434.34 322.798 Z M 449.03 322.41 L 449.03 297.578 L 452.964 297.578 L 462.734 312.826 L 460.732 312.826 L 470.471 297.609 L 474.436 297.609 L 474.436 322.441 L 468.919 322.441 L 468.919 306.921 L 469.904 307.161 L 463.541 317.071 L 459.886 317.071 L 453.562 307.161 L 454.508 306.921 L 454.508 322.441 L 449.03 322.41 Z M 479.185 322.41 L 479.185 297.578 L 484.702 297.578 L 484.702 322.41 L 479.185 322.41 Z M 483.399 302.342 L 483.399 297.593 L 496.824 297.593 L 496.824 302.342 L 483.399 302.342 Z M 483.399 312.042 L 483.399 307.433 L 495.768 307.433 L 495.768 312.05 L 483.399 312.042 Z M 483.399 322.41 L 483.399 317.629 L 497.002 317.629 L 497.002 322.41 L 483.399 322.41 Z M 500.797 322.41 L 500.797 297.578 L 504.677 297.578 L 506.33 302.536 L 506.33 322.394 L 500.797 322.41 Z M 517.915 322.41 L 503.288 303.677 L 504.661 297.593 L 519.281 316.326 L 517.915 322.41 Z M 517.915 322.41 L 516.433 317.482 L 516.433 297.593 L 521.95 297.593 L 521.95 322.425 L 517.915 322.41 Z M 525.047 302.412 L 525.047 297.593 L 546.138 297.593 L 546.138 302.412 L 525.047 302.412 Z M 532.807 322.41 L 532.807 297.95 L 538.324 297.95 L 538.324 322.41 L 532.807 322.41 Z M 559.734 322.829 C 557.957 322.849 556.195 322.514 554.55 321.843 C 552.996 321.209 551.581 320.279 550.383 319.104 C 549.193 317.939 548.25 316.545 547.613 315.006 C 546.3 311.772 546.3 308.153 547.613 304.918 C 548.248 303.395 549.179 302.013 550.352 300.852 C 551.537 299.688 552.94 298.767 554.48 298.144 C 557.806 296.861 561.491 296.861 564.817 298.144 C 566.359 298.773 567.765 299.692 568.96 300.852 C 570.142 302.015 571.079 303.403 571.715 304.934 C 573.021 308.17 573.021 311.786 571.715 315.022 C 571.084 316.55 570.152 317.935 568.976 319.096 C 567.793 320.268 566.39 321.194 564.848 321.82 C 563.227 322.494 561.489 322.837 559.734 322.829 L 559.734 322.829 Z M 559.664 317.8 C 561.022 317.83 562.362 317.492 563.544 316.822 C 564.655 316.172 565.553 315.212 566.128 314.06 C 566.76 312.791 567.074 311.387 567.044 309.97 C 567.058 308.887 566.879 307.81 566.516 306.789 C 566.189 305.872 565.673 305.034 565.003 304.329 C 564.347 303.65 563.553 303.121 562.675 302.777 C 561.719 302.4 560.699 302.213 559.672 302.226 C 558.315 302.199 556.976 302.534 555.792 303.196 C 554.692 303.811 553.792 304.73 553.2 305.842 C 552.562 307.111 552.247 308.519 552.284 309.939 C 552.272 311.028 552.45 312.11 552.812 313.136 C 553.137 314.053 553.644 314.895 554.302 315.612 C 554.952 316.308 555.746 316.854 556.63 317.21 C 557.592 317.605 558.624 317.805 559.664 317.8 L 559.664 317.8 Z M 583.107 322.798 C 581.304 322.841 579.514 322.5 577.853 321.796 C 576.316 321.071 574.945 320.035 573.826 318.755 L 577.411 315.2 C 578.152 316.072 579.053 316.793 580.065 317.327 C 581.116 317.857 582.279 318.123 583.456 318.103 C 584.406 318.159 585.353 317.938 586.18 317.466 C 586.795 317.099 587.165 316.429 587.15 315.713 C 587.173 315.098 586.943 314.5 586.513 314.06 C 586.029 313.598 585.463 313.23 584.845 312.973 C 584.154 312.663 583.394 312.376 582.556 312.089 C 581.718 311.802 580.903 311.491 580.08 311.126 C 579.269 310.768 578.508 310.306 577.815 309.753 C 577.115 309.191 576.546 308.484 576.146 307.681 C 574.314 304.059 575.945 299.643 579.692 298.082 C 581.13 297.483 582.676 297.19 584.232 297.221 C 585.863 297.201 587.48 297.51 588.989 298.129 C 590.351 298.684 591.571 299.538 592.559 300.627 L 588.973 304.174 C 588.318 303.478 587.553 302.896 586.707 302.451 C 585.901 302.068 585.016 301.877 584.123 301.892 C 583.326 301.849 582.534 302.038 581.842 302.435 C 581.3 302.761 580.976 303.355 580.996 303.987 C 580.967 304.572 581.197 305.14 581.625 305.539 C 582.117 305.969 582.682 306.308 583.293 306.54 C 583.991 306.82 584.752 307.099 585.582 307.378 C 586.413 307.658 587.243 307.991 588.058 308.364 C 588.87 308.739 589.632 309.216 590.324 309.784 C 591.03 310.382 591.599 311.126 591.992 311.965 C 592.446 312.987 592.663 314.098 592.628 315.216 C 592.725 317.371 591.784 319.442 590.099 320.788 C 588.407 322.128 586.076 322.798 583.107 322.798 L 583.107 322.798 Z M 602.328 315.798 L 602.328 311.088 L 614.744 311.088 L 614.744 315.798 L 602.328 315.798 Z M 637.504 322.798 C 635.743 322.812 633.995 322.483 632.36 321.828 C 629.234 320.575 626.744 318.117 625.453 315.006 C 624.137 311.773 624.137 308.152 625.453 304.918 C 626.085 303.393 627.016 302.011 628.192 300.852 C 629.381 299.697 630.783 298.785 632.321 298.167 C 635.673 296.895 639.375 296.895 642.727 298.167 C 644.222 298.771 645.589 299.653 646.754 300.767 L 643.061 304.492 C 642.392 303.783 641.583 303.22 640.686 302.839 C 639.667 302.423 638.574 302.22 637.473 302.241 C 636.457 302.228 635.447 302.413 634.501 302.784 C 633.622 303.127 632.827 303.656 632.173 304.336 C 631.51 305.048 630.996 305.884 630.66 306.796 C 629.936 308.856 629.936 311.1 630.66 313.16 C 630.998 314.071 631.512 314.907 632.173 315.62 C 632.832 316.294 633.625 316.823 634.501 317.172 C 635.444 317.558 636.455 317.751 637.473 317.738 C 638.604 317.762 639.728 317.558 640.779 317.14 C 641.69 316.759 642.513 316.197 643.2 315.488 L 646.925 319.212 C 645.726 320.318 644.338 321.198 642.828 321.812 C 641.136 322.489 639.327 322.824 637.504 322.798 L 637.504 322.798 Z M 659.931 322.798 C 658.05 322.837 656.192 322.388 654.538 321.494 C 653.006 320.66 651.74 319.412 650.883 317.893 C 649.988 316.289 649.532 314.477 649.563 312.64 L 649.563 297.593 L 655.12 297.593 L 655.12 312.958 C 655.098 313.852 655.315 314.736 655.748 315.519 C 656.154 316.231 656.758 316.811 657.486 317.187 C 658.241 317.579 659.08 317.779 659.931 317.769 C 660.787 317.789 661.634 317.589 662.391 317.187 C 663.092 316.805 663.67 316.232 664.059 315.534 C 664.488 314.756 664.703 313.877 664.68 312.989 L 664.68 297.593 L 670.228 297.593 L 670.228 312.671 C 670.264 314.501 669.814 316.308 668.925 317.909 C 668.076 319.417 666.823 320.658 665.308 321.494 C 663.66 322.389 661.806 322.838 659.931 322.798 L 659.931 322.798 Z M 674.62 322.41 L 674.62 297.578 L 680.138 297.578 L 680.138 322.41 L 674.62 322.41 Z M 678.834 312.182 L 678.834 308.108 L 684.064 308.108 C 684.993 308.165 685.907 307.862 686.617 307.262 C 687.796 305.993 687.796 304.03 686.617 302.761 C 685.927 302.14 685.015 301.824 684.088 301.884 L 678.834 301.884 L 678.834 297.593 L 684.732 297.593 C 686.228 297.561 687.711 297.88 689.062 298.524 C 690.251 299.102 691.258 299.996 691.972 301.108 C 693.378 303.451 693.378 306.378 691.972 308.721 C 691.25 309.832 690.227 310.715 689.023 311.266 C 687.624 311.906 686.098 312.219 684.561 312.182 L 678.834 312.182 Z M 688.146 322.41 L 680.386 311.724 L 685.446 310.35 L 694.657 322.41 L 688.146 322.41 Z M 703.899 322.798 C 702.096 322.841 700.305 322.5 698.645 321.796 C 697.108 321.071 695.737 320.035 694.618 318.755 L 698.203 315.2 C 698.944 316.072 699.845 316.793 700.857 317.327 C 701.908 317.857 703.071 318.123 704.248 318.103 C 705.198 318.159 706.145 317.938 706.972 317.466 C 707.587 317.099 707.957 316.429 707.942 315.713 C 707.965 315.098 707.735 314.5 707.305 314.06 C 706.821 313.598 706.255 313.23 705.637 312.973 C 704.946 312.663 704.186 312.376 703.348 312.089 C 702.51 311.802 701.695 311.491 700.872 311.126 C 700.061 310.768 699.3 310.306 698.607 309.753 C 697.907 309.191 697.338 308.484 696.938 307.681 C 695.106 304.059 696.737 299.643 700.484 298.082 C 701.922 297.483 703.467 297.19 705.024 297.221 C 706.655 297.201 708.272 297.51 709.781 298.129 C 711.143 298.684 712.363 299.538 713.351 300.627 L 709.765 304.174 C 709.11 303.478 708.345 302.896 707.499 302.451 C 706.693 302.068 705.808 301.877 704.915 301.892 C 704.118 301.849 703.326 302.038 702.634 302.435 C 702.092 302.761 701.768 303.355 701.788 303.987 C 701.759 304.572 701.989 305.14 702.417 305.539 C 702.909 305.969 703.474 306.308 704.085 306.54 C 704.783 306.82 705.544 307.099 706.413 307.378 C 707.282 307.658 708.074 307.991 708.889 308.364 C 709.701 308.739 710.463 309.216 711.154 309.784 C 711.861 310.382 712.43 311.126 712.823 311.965 C 713.276 312.987 713.494 314.098 713.459 315.216 C 713.556 317.371 712.615 319.442 710.929 320.788 C 709.191 322.128 706.848 322.798 703.899 322.798 L 703.899 322.798 Z M 728.987 322.829 C 727.211 322.848 725.448 322.513 723.803 321.843 C 722.252 321.209 720.839 320.279 719.644 319.104 C 718.451 317.939 717.506 316.546 716.866 315.006 C 715.553 311.772 715.553 308.153 716.866 304.918 C 717.501 303.395 718.432 302.013 719.605 300.852 C 720.79 299.688 722.193 298.767 723.733 298.144 C 727.059 296.861 730.744 296.861 734.07 298.144 C 735.613 298.771 737.02 299.691 738.214 300.852 C 739.398 302.015 740.337 303.402 740.976 304.934 C 742.282 308.17 742.282 311.786 740.976 315.022 C 739.681 318.113 737.206 320.56 734.101 321.82 C 732.481 322.494 730.742 322.837 728.987 322.829 L 728.987 322.829 Z M 728.917 317.8 C 730.275 317.828 731.615 317.49 732.797 316.822 C 733.905 316.168 734.802 315.209 735.381 314.06 C 736.007 312.789 736.318 311.386 736.289 309.97 C 736.307 308.887 736.128 307.809 735.761 306.789 C 735.434 305.874 734.921 305.037 734.256 304.329 C 733.6 303.651 732.806 303.122 731.928 302.777 C 730.972 302.4 729.952 302.213 728.925 302.226 C 727.568 302.197 726.228 302.532 725.045 303.196 C 723.938 303.828 723.04 304.769 722.461 305.904 C 721.823 307.174 721.508 308.581 721.545 310.001 C 721.533 311.09 721.711 312.172 722.073 313.198 C 722.397 314.117 722.907 314.96 723.57 315.674 C 724.22 316.371 725.015 316.917 725.898 317.272 C 726.861 317.643 727.886 317.822 728.917 317.8 L 728.917 317.8 Z M 752.36 322.798 C 750.558 322.84 748.767 322.499 747.106 321.796 C 745.569 321.071 744.198 320.035 743.079 318.755 L 746.664 315.2 C 747.407 316.07 748.308 316.791 749.318 317.327 C 750.369 317.856 751.533 318.122 752.709 318.103 C 753.66 318.159 754.606 317.938 755.433 317.466 C 756.065 317.104 756.448 316.425 756.434 315.697 C 756.461 315.082 756.231 314.483 755.798 314.044 C 755.313 313.582 754.748 313.214 754.129 312.958 C 753.439 312.647 752.678 312.36 751.848 312.073 C 751.018 311.786 750.187 311.476 749.372 311.111 C 748.561 310.752 747.8 310.291 747.106 309.737 C 746.404 309.176 745.832 308.469 745.43 307.666 C 743.607 304.054 745.225 299.653 748.953 298.082 C 750.388 297.484 751.931 297.191 753.485 297.221 C 755.118 297.201 756.738 297.51 758.25 298.129 C 759.609 298.684 760.827 299.538 761.812 300.627 L 758.227 304.174 C 757.573 303.477 756.807 302.894 755.961 302.451 C 755.154 302.068 754.269 301.877 753.377 301.892 C 752.58 301.851 751.788 302.04 751.095 302.435 C 750.553 302.761 750.229 303.355 750.249 303.987 C 750.22 304.574 750.453 305.143 750.886 305.539 C 751.377 305.971 751.942 306.31 752.554 306.54 C 753.247 306.82 754.008 307.099 754.835 307.378 C 755.666 307.666 756.496 307.991 757.319 308.364 C 758.13 308.741 758.892 309.218 759.585 309.784 C 760.291 310.382 760.86 311.126 761.253 311.965 C 761.7 312.989 761.915 314.099 761.881 315.216 C 761.982 317.372 761.041 319.444 759.352 320.788 C 757.67 322.128 755.34 322.798 752.36 322.798 L 752.36 322.798 Z" style="fill: rgb(255, 255, 255);"/><path classname="cls-2" d="M 272.459 252.298 C 270.131 252.259 268.036 255.953 268.292 261.61 C 268.595 268.26 273.282 275.011 273.282 281.437 C 273.282 286.939 264.893 292.906 264.971 304.212 C 265.048 317.094 271.489 324.163 289.143 324.163 C 306.797 324.163 311.119 315.728 311.119 304.763 C 311.119 294.675 304.616 291.3 304.616 283.757 C 304.616 275.826 308.822 272.21 309.606 267.771 C 310.529 262.518 307.619 260.128 305.47 260.958 C 303.561 261.734 304.43 266.677 297.772 266.817 C 294.575 266.887 292.216 263.891 292.216 256.473 C 292.216 249.054 284.735 248.247 284.285 255.526 C 284.146 257.683 283.463 261.843 279.001 261.866 C 274.034 261.874 275.423 252.383 272.459 252.298 L 272.459 252.298 Z" style="fill: rgb(255, 255, 255);"/><path classname="cls-2" d="M 284.068 266.607 L 292.332 266.607 L 290.897 197.047 L 285.496 197.047 L 284.068 266.607 Z" style="fill: rgb(255, 255, 255);"/><path classname="cls-2" d="M 296.453 189.923 C 296.021 185.45 296.22 180.939 297.043 176.522 C 298.339 169.996 296.678 166.317 293.07 174.76 L 284.425 195.029 C 284.083 195.805 283.517 196.162 284.665 197.784 C 285.087 198.309 285.356 198.94 285.441 199.608 L 290.943 199.608 C 290.943 198.692 292.006 196.255 293.946 194.626 C 295.141 193.617 296.577 191.351 296.453 189.923 L 296.453 189.923 Z" style="fill: rgb(255, 255, 255);"/><path classname="cls-1" d="M 291.556 176.127 L 292.332 176.127 L 292.332 178.75 L 291.556 178.75 L 291.556 176.127 Z" style="transform-box: fill-box; transform-origin: 50% 50%; fill: rgb(255, 255, 255);" transform="matrix(0.3933, -0.91941, 0.91941, 0.3933, 0.00001, -0.000022)"/><path classname="cls-2" d="M 290.548 178.097 L 289.709 177.74 C 289.05 177.15 289.709 175.637 290.586 175.699 L 291.417 176.056 C 291.781 176.522 291.13 178.043 290.548 178.097 L 290.548 178.097 Z" style="fill: rgb(255, 255, 255);"/><path classname="cls-1" d="M 290.155 179.403 L 290.931 179.403 L 290.931 182.026 L 290.155 182.026 L 290.155 179.403 Z" style="transform-box: fill-box; transform-origin: 50% 50%; fill: rgb(255, 255, 255);" transform="matrix(0.393461, -0.919341, 0.919341, 0.393461, 0.000013, -0.000008)"/><path classname="cls-2" d="M 289.143 181.379 L 288.305 181.015 C 287.645 180.425 288.305 178.912 289.182 178.974 L 290.059 179.354 C 290.377 179.796 289.725 181.317 289.143 181.379 Z" style="fill: rgb(255, 255, 255);"/><path classname="cls-1" d="M 288.756 182.682 L 289.532 182.682 L 289.532 185.304 L 288.756 185.304 L 288.756 182.682 Z" style="transform-box: fill-box; transform-origin: 50% 50%; fill: rgb(255, 255, 255);" transform="matrix(0.393621, -0.919273, 0.919273, 0.393621, 0.00001, 0.000004)"/><path classname="cls-2" d="M 287.731 184.654 L 286.9 184.297 C 286.241 183.707 286.9 182.187 287.769 182.256 L 288.608 182.613 C 288.98 183.071 288.328 184.592 287.731 184.654 L 287.731 184.654 Z" style="fill: rgb(255, 255, 255);"/><path classname="cls-1" d="M 287.345 185.953 L 288.121 185.953 L 288.121 188.576 L 287.345 188.576 L 287.345 185.953 Z" style="transform-box: fill-box; transform-origin: 50% 50%; fill: rgb(255, 255, 255);" transform="matrix(0.39314, -0.919479, 0.919479, 0.39314, 0.000003, 0.000005)"/><path classname="cls-2" d="M 286.342 187.929 L 285.504 187.572 C 284.844 186.982 285.504 185.461 286.38 185.531 L 287.211 185.888 C 287.575 186.338 286.955 187.89 286.342 187.929 L 286.342 187.929 Z" style="fill: rgb(255, 255, 255);"/><path classname="cls-1" d="M 285.956 189.227 L 286.732 189.227 L 286.732 191.85 L 285.956 191.85 L 285.956 189.227 Z" style="transform-box: fill-box; transform-origin: 50% 50%; fill: rgb(255, 255, 255);" transform="matrix(0.393461, -0.919341, 0.919341, 0.393461, 0, 0.000008)"/><path classname="cls-2" d="M 284.937 191.204 L 284.099 190.847 C 283.439 190.257 284.099 188.736 284.976 188.806 L 285.814 189.163 C 286.179 189.621 285.519 191.149 284.937 191.204 Z" style="fill: rgb(255, 255, 255);"/><path classname="cls-1" d="M 284.55 192.505 L 285.326 192.505 L 285.326 195.128 L 284.55 195.128 L 284.55 192.505 Z" style="transform-box: fill-box; transform-origin: 50% 50%; fill: rgb(255, 255, 255);" transform="matrix(0.393461, -0.919341, 0.919341, 0.393461, -0.000002, 0.000016)"/><path classname="cls-2" d="M 283.54 194.478 L 282.702 194.098 C 282.043 193.508 282.702 191.987 283.571 192.057 L 284.409 192.414 C 284.774 192.903 284.122 194.424 283.54 194.478 L 283.54 194.478 Z" style="fill: rgb(255, 255, 255);"/><path d="M 637.706 280.715 L 637.706 208.012 L 658.123 208.012 L 658.123 280.715 L 637.706 280.715 Z M 654.351 280.715 L 654.351 263.356 L 688.356 263.356 L 688.356 280.715 L 654.351 280.715 Z M 689.07 280.715 L 716.749 208.012 L 737.577 208.012 L 764.97 280.715 L 743.708 280.715 L 723.384 218.93 L 730.733 218.93 L 709.874 280.715 L 689.07 280.715 Z M 707.049 268.462 L 707.049 252.531 L 747.688 252.531 L 747.688 268.462 L 707.049 268.462 Z" fill="#d88506"/></g></svg>